<svg xmlns="http://www.w3.org/2000/svg" viewBox="0 0 1200 630" width="1200" height="630">
  <defs>
    <linearGradient id="bg" x1="0" y1="0" x2="1" y2="1">
      <stop offset="0%" stop-color="#134e4a"/>
      <stop offset="50%" stop-color="#064e3b"/>
      <stop offset="100%" stop-color="#0f766e"/>
    </linearGradient>
  </defs>
  <rect width="1200" height="630" fill="url(#bg)"/>
  <circle cx="150" cy="480" r="170" fill="#10b981" opacity="0.06"/>
  <circle cx="1050" cy="150" r="200" fill="#14b8a6" opacity="0.06"/>
  <rect x="510" y="160" width="180" height="230" rx="10" fill="none" stroke="#a7f3d0" stroke-width="3" opacity="0.6"/>
  <rect x="510" y="160" width="180" height="230" rx="10" fill="#a7f3d0" opacity="0.05"/>
  <line x1="540" y1="210" x2="660" y2="210" stroke="#a7f3d0" stroke-width="3" opacity="0.5"/>
  <line x1="540" y1="240" x2="650" y2="240" stroke="#a7f3d0" stroke-width="2" opacity="0.3"/>
  <line x1="540" y1="260" x2="660" y2="260" stroke="#a7f3d0" stroke-width="2" opacity="0.3"/>
  <line x1="540" y1="280" x2="640" y2="280" stroke="#a7f3d0" stroke-width="2" opacity="0.3"/>
  <line x1="540" y1="300" x2="655" y2="300" stroke="#a7f3d0" stroke-width="2" opacity="0.3"/>
  <line x1="540" y1="320" x2="630" y2="320" stroke="#a7f3d0" stroke-width="2" opacity="0.3"/>
  <line x1="540" y1="340" x2="660" y2="340" stroke="#a7f3d0" stroke-width="2" opacity="0.3"/>
  <line x1="540" y1="360" x2="620" y2="360" stroke="#a7f3d0" stroke-width="2" opacity="0.3"/>
  <path d="M720 350 L740 330 L760 380 L740 385Z" fill="#a7f3d0" opacity="0.5"/>
  <path d="M740 330 L755 320 L775 370 L760 380Z" fill="#6ee7b7" opacity="0.4"/>
  <circle cx="728" cy="342" r="6" fill="#a7f3d0" opacity="0.6"/>
  <text x="600" y="480" text-anchor="middle" font-family="system-ui,sans-serif" font-size="48" font-weight="700" fill="#fff">YeyClub Blog</text>
  <text x="600" y="530" text-anchor="middle" font-family="system-ui,sans-serif" font-size="22" fill="#a7f3d0" opacity="0.8">Topluluktan haberler ve yaz1lar</text>
</svg>
