<svg xmlns="http://www.w3.org/2000/svg" viewBox="0 0 1200 630" width="1200" height="630">
  <defs>
    <linearGradient id="bg" x1="0" y1="0" x2="1" y2="1">
      <stop offset="0%" stop-color="#064e3b"/>
      <stop offset="50%" stop-color="#0f766e"/>
      <stop offset="100%" stop-color="#134e4a"/>
    </linearGradient>
    <linearGradient id="steam" x1="0.5" y1="1" x2="0.5" y2="0">
      <stop offset="0%" stop-color="#fff" stop-opacity="0.5"/>
      <stop offset="100%" stop-color="#fff" stop-opacity="0"/>
    </linearGradient>
  </defs>
  <rect width="1200" height="630" fill="url(#bg)"/>
  <circle cx="200" cy="500" r="180" fill="#10b981" opacity="0.08"/>
  <circle cx="1050" cy="120" r="140" fill="#14b8a6" opacity="0.08"/>
  <ellipse cx="600" cy="380" rx="130" ry="50" fill="#f59e0b" opacity="0.85"/>
  <path d="M470 380 Q470 280 600 260 Q730 280 730 380" fill="#fbbf24" opacity="0.9"/>
  <ellipse cx="600" cy="280" rx="110" ry="20" fill="#f59e0b" opacity="0.4"/>
  <path d="M540 260 Q540 220 555 200" stroke="url(#steam)" stroke-width="6" fill="none" stroke-linecap="round"/>
  <path d="M590 250 Q590 200 605 175" stroke="url(#steam)" stroke-width="6" fill="none" stroke-linecap="round"/>
  <path d="M640 260 Q640 220 655 200" stroke="url(#steam)" stroke-width="6" fill="none" stroke-linecap="round"/>
  <rect x="560" y="380" width="80" height="30" rx="4" fill="#d97706" opacity="0.7"/>
  <text x="600" y="510" text-anchor="middle" font-family="system-ui,sans-serif" font-size="48" font-weight="700" fill="#fff">Çorba Etkinlii</text>
  <text x="600" y="560" text-anchor="middle" font-family="system-ui,sans-serif" font-size="22" fill="#a7f3d0" opacity="0.8">S1cak bir kase, s1cak bir topluluk</text>
</svg>
