<svg xmlns="http://www.w3.org/2000/svg" viewBox="0 0 1200 630" width="1200" height="630">
  <defs>
    <linearGradient id="bg" x1="0" y1="0" x2="1" y2="1">
      <stop offset="0%" stop-color="#064e3b"/>
      <stop offset="50%" stop-color="#115e59"/>
      <stop offset="100%" stop-color="#0f766e"/>
    </linearGradient>
  </defs>
  <rect width="1200" height="630" fill="url(#bg)"/>
  <circle cx="200" cy="500" r="200" fill="#10b981" opacity="0.06"/>
  <circle cx="1000" cy="130" r="180" fill="#14b8a6" opacity="0.06"/>
  <rect x="540" y="170" width="120" height="130" rx="12" fill="none" stroke="#a7f3d0" stroke-width="4" opacity="0.7"/>
  <rect x="540" y="170" width="120" height="35" rx="12" fill="#a7f3d0" opacity="0.3"/>
  <line x1="570" y1="230" x2="630" y2="230" stroke="#a7f3d0" stroke-width="2" opacity="0.4"/>
  <line x1="570" y1="250" x2="620" y2="250" stroke="#a7f3d0" stroke-width="2" opacity="0.4"/>
  <line x1="570" y1="270" x2="610" y2="270" stroke="#a7f3d0" stroke-width="2" opacity="0.4"/>
  <circle cx="490" cy="370" r="28" fill="none" stroke="#a7f3d0" stroke-width="3" opacity="0.6"/>
  <circle cx="490" cy="370" r="12" fill="#a7f3d0" opacity="0.3"/>
  <circle cx="560" cy="385" r="28" fill="none" stroke="#a7f3d0" stroke-width="3" opacity="0.6"/>
  <circle cx="560" cy="385" r="12" fill="#a7f3d0" opacity="0.3"/>
  <circle cx="630" cy="370" r="28" fill="none" stroke="#a7f3d0" stroke-width="3" opacity="0.6"/>
  <circle cx="630" cy="370" r="12" fill="#a7f3d0" opacity="0.3"/>
  <circle cx="700" cy="385" r="28" fill="none" stroke="#a7f3d0" stroke-width="3" opacity="0.6"/>
  <circle cx="700" cy="385" r="12" fill="#a7f3d0" opacity="0.3"/>
  <text x="600" y="490" text-anchor="middle" font-family="system-ui,sans-serif" font-size="48" font-weight="700" fill="#fff">YeyClub Etkinlik</text>
  <text x="600" y="540" text-anchor="middle" font-family="system-ui,sans-serif" font-size="22" fill="#a7f3d0" opacity="0.8">Topluluk etkinliine kat1l1n</text>
</svg>
